<svg width="130" height="130" viewBox="0 0 130 130" fill="none" xmlns="http://www.w3.org/2000/svg">
<path fill-rule="evenodd" clip-rule="evenodd" d="M69.8751 8.12499C82.8751 8.93749 95.0626 15.4375 104 24.375C114.563 35.75 120.25 49.5625 120.25 65.8125C120.25 78.8125 115.375 91 107.25 101.562C99.1251 111.312 87.7501 118.625 74.7501 121.062C61.75 123.5 48.7501 121.875 37.3751 115.375C26.0001 108.875 17.0626 99.125 12.1876 86.9375C7.31256 74.75 6.50006 60.9375 10.5626 48.75C14.6251 35.75 21.9376 25.1875 33.3126 17.875C43.8751 10.5625 56.8751 7.31249 69.8751 8.12499ZM73.9376 112.937C84.5001 110.5 94.2501 104.812 101.563 95.875C108.063 86.9375 112.125 76.375 111.313 65C111.313 52 106.438 39 97.5001 30.0625C89.3751 21.9375 79.6251 17.0625 68.2501 16.25C57.6876 15.4375 46.3126 17.875 37.3751 24.375C28.4376 30.875 21.9376 39.8125 18.6876 51.1875C15.4376 61.75 15.4376 73.125 20.3126 83.6875C25.1876 94.25 32.5001 102.375 42.2501 108.062C52.0001 113.75 63.3751 115.375 73.9376 112.937ZM64.1876 60.9375L83.6876 40.625L89.3751 46.3125L69.8751 66.625L89.3751 86.9375L83.6876 92.625L64.1876 72.3125L44.6876 92.625L39.0001 86.9375L58.5001 66.625L39.0001 46.3125L44.6876 40.625L64.1876 60.9375Z" fill="#EB4F36"/>
</svg>
