<?xml version="1.0" standalone="no"?>
<!DOCTYPE svg PUBLIC "-//W3C//DTD SVG 20010904//EN"
 "http://www.w3.org/TR/2001/REC-SVG-20010904/DTD/svg10.dtd">
<svg version="1.0" xmlns="http://www.w3.org/2000/svg"
 width="429.000000pt" height="429.000000pt" viewBox="0 0 429.000000 429.000000"
 preserveAspectRatio="xMidYMid meet">
<metadata>
Created by potrace 1.14, written by Peter Selinger 2001-2017
</metadata>
<g transform="translate(0.000000,429.000000) scale(0.100000,-0.100000)"
fill="#000000" stroke="none">
<path d="M2724 3965 c-16 -12 -64 -126 -64 -154 0 -24 21 -41 57 -45 42 -4 58
8 113 86 55 78 58 89 34 109 -20 16 -120 19 -140 4z"/>
<path d="M28 3929 c-34 -20 -18 -83 27 -106 13 -6 460 -9 1281 -9 1166 1 1262
2 1277 18 23 23 21 41 -9 77 l-26 31 -1266 0 c-842 -1 -1273 -4 -1284 -11z"/>
<path d="M2928 3926 c-26 -19 -22 -59 8 -87 l26 -24 635 0 c431 -1 642 3 656
10 33 16 33 58 2 89 l-26 26 -642 0 c-518 -1 -645 -3 -659 -14z"/>
<path d="M1643 3741 c-63 -16 -116 -64 -140 -125 -8 -21 -12 -121 -12 -303 -1
-311 0 -316 92 -398 26 -24 54 -58 61 -77 31 -72 129 -138 205 -138 42 0 51
13 54 70 2 50 0 54 -28 72 -16 10 -38 18 -47 18 -24 0 -23 17 1 25 22 7 76 56
90 83 5 10 13 32 17 48 11 50 11 523 0 567 -11 42 -68 110 -118 140 -31 19
-129 29 -175 18z m123 -176 c5 -20 -1 -499 -7 -521 -1 -6 -7 -11 -13 -11 -6 0
-20 -3 -31 -6 -43 -14 -45 -5 -46 268 0 250 0 260 20 276 28 23 71 19 77 -6z"/>
<path d="M83 3733 c-20 -7 -18 -811 1 -836 12 -15 26 -17 87 -15 l74 3 3 154
c1 85 4 156 5 157 1 2 30 5 64 8 173 15 227 107 200 338 -7 58 -14 73 -47 111
-61 69 -93 80 -245 82 -72 1 -136 0 -142 -2z m241 -169 c15 -15 18 -26 19 -84
2 -82 -20 -120 -68 -120 l-25 0 0 104 c0 74 4 106 13 109 24 10 46 7 61 -9z"/>
<path d="M648 3732 c-16 -3 -24 -29 -44 -137 -4 -22 -9 -48 -10 -58 -1 -15
-11 -67 -29 -162 -3 -16 -8 -48 -11 -70 -3 -22 -12 -71 -20 -110 -8 -38 -17
-90 -20 -115 -3 -25 -7 -52 -10 -60 -3 -8 -8 -35 -11 -60 -7 -71 10 -84 113
-81 36 1 43 5 52 29 6 15 13 49 15 76 2 26 10 52 17 56 11 7 78 5 86 -3 2 -2
6 -28 10 -57 11 -89 23 -100 110 -100 l74 0 0 28 c0 15 -4 43 -9 62 -5 19 -12
58 -16 85 -3 28 -12 82 -19 120 -8 39 -19 104 -26 145 -7 41 -14 82 -17 90 -3
8 -7 29 -9 45 -2 17 -9 55 -14 85 -5 30 -12 69 -14 85 -15 99 -28 111 -116
111 -36 0 -72 -2 -82 -4z m96 -454 c10 -39 7 -66 -9 -72 -19 -7 -28 12 -21 50
2 16 5 32 5 37 2 16 19 6 25 -15z"/>
<path d="M1020 3726 c-6 -6 -10 -146 -10 -410 1 -323 3 -405 14 -419 12 -15
26 -17 87 -15 l74 3 3 153 c1 83 6 152 11 152 4 0 14 -19 21 -42 12 -42 17
-57 40 -148 30 -112 38 -121 115 -123 90 -4 93 3 60 114 -15 52 -36 119 -46
150 -23 67 -24 108 -4 115 9 4 27 26 41 50 24 40 26 54 26 152 0 121 -11 160
-61 211 -52 53 -91 64 -233 66 -77 1 -131 -2 -138 -9z m247 -159 c7 -8 7 -131
0 -158 -7 -27 -47 -46 -67 -34 -15 9 -13 192 3 198 13 5 56 1 64 -6z"/>
<path d="M2008 3729 c-20 -12 -21 -624 -1 -698 21 -76 87 -142 164 -160 121
-29 235 30 267 139 7 21 10 650 5 678 -7 32 -48 49 -113 48 l-55 -1 -5 -338
c-5 -321 -6 -339 -24 -353 -24 -17 -52 -18 -63 -2 -4 7 -8 158 -8 335 -1 374
4 356 -94 358 -33 1 -65 -2 -73 -6z"/>
<path d="M2523 3728 c-3 -6 -5 -190 -5 -410 -1 -379 0 -401 18 -419 17 -17 37
-19 194 -20 149 -1 175 1 185 15 15 20 31 21 39 1 4 -11 22 -15 75 -15 38 0
72 3 74 8 3 4 8 25 11 47 12 79 18 105 25 106 37 7 68 7 77 1 7 -4 15 -31 18
-61 3 -30 13 -65 21 -78 15 -22 21 -24 88 -21 l72 3 1 30 c0 17 -3 46 -8 65
-4 19 -13 64 -18 100 -6 36 -15 92 -21 125 -6 33 -12 78 -15 100 -3 22 -10 54
-15 71 -5 17 -11 46 -13 65 -3 19 -9 61 -15 94 -5 33 -14 84 -19 114 -13 76
-35 91 -130 87 -40 -2 -75 -6 -78 -9 -8 -8 -22 -73 -30 -137 -3 -30 -8 -59
-11 -63 -3 -4 -9 -33 -13 -65 -17 -103 -20 -127 -26 -152 -8 -36 -45 -248 -51
-295 -3 -22 -7 -42 -8 -44 -8 -7 -25 11 -25 27 0 31 -37 43 -131 43 l-90 0 3
97 3 97 65 3 c36 2 69 7 74 12 5 5 10 32 12 60 3 70 -19 90 -98 90 l-58 0 0
85 c0 74 2 85 18 86 9 1 54 2 99 3 45 0 85 4 89 9 4 4 7 33 6 65 -1 84 -8 87
-214 88 -96 1 -171 -3 -175 -8z m668 -420 c7 -82 4 -103 -17 -106 -20 -3 -21
0 -14 40 5 24 9 44 9 46 1 1 1 9 1 17 0 18 20 20 21 3z"/>
<path d="M3371 3717 c-12 -32 -4 -109 13 -126 9 -8 40 -18 69 -21 l52 -5 1
-318 c1 -241 4 -324 14 -343 12 -22 20 -24 81 -24 43 0 71 5 76 13 4 6 9 160
9 340 1 180 5 331 8 334 3 3 29 5 57 4 67 -2 79 9 79 74 0 88 -5 90 -247 90
-193 1 -206 0 -212 -18z"/>
<path d="M3861 3721 c-5 -9 -8 -191 -7 -406 1 -296 4 -395 14 -412 12 -23 16
-23 196 -23 208 0 196 -6 192 86 -3 64 -20 75 -126 75 -105 0 -101 -5 -97 119
l2 75 75 5 75 5 3 59 c4 79 -10 94 -92 98 l-61 3 -2 80 c0 44 3 82 8 86 5 3
48 4 96 3 49 -1 94 3 101 8 7 6 12 33 12 63 0 86 -9 90 -212 91 -145 1 -170
-2 -177 -15z"/>
<path d="M304 2682 c-178 -2 -214 -5 -225 -18 -10 -13 -13 -178 -11 -852 0
-461 1 -855 0 -877 0 -22 -1 -111 -1 -198 -1 -147 1 -159 20 -179 22 -21 74
-31 148 -27 22 1 58 2 80 1 173 -5 507 7 520 19 5 5 17 9 27 9 54 0 160 78
220 160 26 37 57 108 64 150 3 14 8 39 13 55 10 40 12 361 2 389 -5 11 -11 40
-14 62 -10 72 -59 157 -129 227 -31 30 -34 42 -15 54 20 12 72 83 97 131 13
24 28 72 35 107 14 77 11 345 -5 375 -6 11 -8 25 -5 30 7 11 -8 66 -28 110
-37 79 -139 182 -218 221 -101 49 -179 56 -575 51z m338 -377 c22 -3 42 -14
50 -28 13 -20 18 -34 35 -102 2 -11 5 -69 4 -130 0 -173 -34 -226 -153 -240
-78 -9 -96 -2 -93 35 1 17 -1 32 -5 35 -5 3 -6 24 -3 48 3 23 6 121 7 217 l1
175 40 5 c22 3 49 2 60 -2 11 -3 36 -9 57 -13z m23 -857 c14 -6 25 -15 25 -20
0 -4 6 -8 14 -8 8 0 17 -8 20 -17 14 -47 26 -116 31 -188 4 -43 8 -83 11 -86
2 -4 0 -10 -6 -14 -6 -4 -8 -10 -6 -14 3 -4 -1 -38 -9 -76 -15 -68 -32 -97
-70 -118 -23 -12 -184 -21 -186 -10 -7 37 -4 532 3 546 7 14 22 17 78 17 38 0
81 -5 95 -12z"/>
<path d="M2008 2678 c-17 -3 -37 -13 -43 -21 -15 -20 -15 -2055 0 -2077 27
-41 41 -44 248 -47 240 -4 260 -4 265 1 2 2 16 1 32 -4 16 -5 32 -4 37 1 6 6
25 6 49 1 22 -5 50 -5 62 -1 12 4 54 6 94 3 103 -8 140 -5 165 12 20 12 23 24
24 82 1 37 1 71 0 76 -1 4 -2 38 -2 75 -1 86 -19 117 -73 127 -23 4 -115 6
-206 4 -185 -4 -269 -2 -281 6 -5 3 -9 121 -9 263 0 208 3 261 14 270 11 10
147 17 181 11 6 -1 46 -2 91 -1 118 2 116 -1 117 169 2 141 1 142 -25 168 -26
26 -26 26 -199 28 l-174 1 -3 233 -2 233 32 13 c18 8 48 12 68 9 19 -2 116 -5
215 -6 156 -2 204 2 224 20 3 2 6 65 8 141 4 162 -3 187 -56 202 -40 12 -800
19 -853 8z"/>
<path d="M3901 2677 c-18 -4 -33 -16 -37 -30 -4 -12 -8 -231 -9 -487 -1 -256
-3 -468 -4 -472 -3 -22 -18 -3 -31 40 -7 26 -21 65 -30 87 -27 63 -33 79 -37
99 -2 11 -7 24 -11 30 -5 6 -14 31 -21 56 -8 25 -20 59 -27 77 -8 17 -14 35
-13 40 1 4 -8 31 -20 58 -23 50 -88 235 -117 330 -22 74 -51 131 -76 154 -20
19 -34 21 -173 21 -136 0 -154 -2 -169 -19 -16 -17 -17 -91 -17 -1032 0 -558
1 -1024 1 -1035 0 -23 37 -53 73 -60 12 -2 75 -5 139 -5 94 -1 123 2 143 15
l25 16 1 188 c0 211 0 544 -1 552 -4 26 2 276 6 280 8 7 26 -27 55 -105 14
-38 33 -87 42 -109 9 -21 17 -45 17 -52 0 -8 9 -33 19 -57 11 -23 29 -71 41
-107 12 -36 26 -76 32 -90 15 -35 23 -59 37 -105 7 -22 16 -49 21 -60 5 -11
34 -87 65 -170 71 -192 76 -197 194 -192 48 2 96 1 106 -3 28 -10 94 10 105
30 5 10 9 35 9 57 -1 21 -1 65 -1 98 0 33 1 94 1 135 0 41 0 84 0 95 2 41 2
81 1 110 -5 131 -4 1427 0 1450 4 17 2 54 -4 84 -16 81 -33 90 -184 93 -67 2
-135 0 -151 -5z"/>
<path d="M1344 2672 c-6 -4 -16 -16 -21 -27 -14 -27 -14 -2032 0 -2060 24 -46
31 -48 208 -51 164 -2 170 -2 184 19 12 19 14 182 14 1047 0 1087 2 1040 -47
1068 -24 13 -318 17 -338 4z"/>
<path d="M20 421 c-17 -33 -11 -58 18 -83 l28 -23 2090 0 c1751 0 2094 2 2108
14 24 20 20 59 -10 86 l-27 25 -2098 0 c-2064 0 -2098 0 -2109 -19z"/>
</g>
</svg>
