<?xml version="1.0" encoding="UTF-8"?>
<svg xmlns="http://www.w3.org/2000/svg" id="Layer_1" data-name="Layer 1" viewBox="0 0 24 24">
  <path d="M21,11h-5c-1.654,0-3,1.346-3,3v7c0,1.654,1.346,3,3,3h5c1.654,0,3-1.346,3-3v-7c0-1.654-1.346-3-3-3Zm1,10c0,.551-.448,1-1,1h-5c-.552,0-1-.449-1-1v-7c0-.551,.448-1,1-1h5c.552,0,1,.449,1,1v7Zm-1-5.003c0,.552-.447,1-1,1h-3c-.553,0-1-.448-1-1s.447-1,1-1h3c.553,0,1,.448,1,1Zm0,3.003c0,.552-.447,1-1,1h-3c-.553,0-1-.448-1-1s.447-1,1-1h3c.553,0,1,.448,1,1Zm-12-7c3.309,0,6-2.691,6-6S12.309,0,9,0,3,2.691,3,6s2.691,6,6,6Zm0-10c2.206,0,4,1.794,4,4s-1.794,4-4,4-4-1.794-4-4,1.794-4,4-4Zm2,13c0,.552-.447,1-1,1h-1c-3.859,0-7,3.14-7,7,0,.552-.447,1-1,1s-1-.448-1-1c0-4.962,4.037-9,9-9h1c.553,0,1,.448,1,1Z"/>
</svg>
