<svg width="33" height="32" viewBox="0 0 33 32" fill="none" xmlns="http://www.w3.org/2000/svg">
<path d="M9.83333 21.3332C10.3638 21.3332 10.8725 21.1225 11.2475 20.7474C11.6226 20.3723 11.8333 19.8636 11.8333 19.3332C11.8398 19.2667 11.8398 19.1997 11.8333 19.1332L15.5533 15.4132H16.1667L18.3133 17.5598V17.6665C18.3133 18.1969 18.524 18.7056 18.8991 19.0807C19.2742 19.4558 19.7829 19.6665 20.3133 19.6665C20.8438 19.6665 21.3525 19.4558 21.7275 19.0807C22.1026 18.7056 22.3133 18.1969 22.3133 17.6665V17.5598L27.1667 12.6665C27.5622 12.6665 27.9489 12.5492 28.2778 12.3294C28.6067 12.1097 28.8631 11.7973 29.0144 11.4319C29.1658 11.0664 29.2054 10.6643 29.1282 10.2763C29.0511 9.88836 28.8606 9.532 28.5809 9.25229C28.3012 8.97259 27.9448 8.7821 27.5568 8.70493C27.1689 8.62776 26.7668 8.66737 26.4013 8.81874C26.0358 8.97012 25.7235 9.22647 25.5037 9.55536C25.284 9.88426 25.1667 10.2709 25.1667 10.6665C25.1602 10.733 25.1602 10.8 25.1667 10.8665L20.3533 15.6798H20.14L17.8333 13.3332C17.8333 12.8027 17.6226 12.294 17.2475 11.919C16.8725 11.5439 16.3638 11.3332 15.8333 11.3332C15.3029 11.3332 14.7942 11.5439 14.4191 11.919C14.044 12.294 13.8333 12.8027 13.8333 13.3332L9.83333 17.3332C9.3029 17.3332 8.79419 17.5439 8.41912 17.919C8.04405 18.294 7.83333 18.8027 7.83333 19.3332C7.83333 19.8636 8.04405 20.3723 8.41912 20.7474C8.79419 21.1225 9.3029 21.3332 9.83333 21.3332ZM27.8333 26.6665H5.16667V3.99984C5.16667 3.64622 5.02619 3.30708 4.77614 3.05703C4.52609 2.80698 4.18696 2.6665 3.83333 2.6665C3.47971 2.6665 3.14057 2.80698 2.89052 3.05703C2.64048 3.30708 2.5 3.64622 2.5 3.99984V27.9998C2.5 28.3535 2.64048 28.6926 2.89052 28.9426C3.14057 29.1927 3.47971 29.3332 3.83333 29.3332H27.8333C28.187 29.3332 28.5261 29.1927 28.7761 28.9426C29.0262 28.6926 29.1667 28.3535 29.1667 27.9998C29.1667 27.6462 29.0262 27.3071 28.7761 27.057C28.5261 26.807 28.187 26.6665 27.8333 26.6665Z" fill="#009DD4"/>
</svg>
